<svg fill="none" height="62" viewBox="0 0 211 62" width="211" xmlns="http://www.w3.org/2000/svg"><path d="m0 0h211v62h-211z" fill="#fff"/><g fill="#000"><path d="m40 51.96h27.42v-7.5h-18.84v-35.1h-8.58z"/><path d="m87.1272 52.5c9.12 0 15.5398-6.24 15.5398-15.18 0-9-6.4198-15.12-15.5398-15.12-9.36 0-15.6 6.36-15.6 15.12s6.24 15.18 15.6 15.18zm0-7.08c-4.5 0-7.62-3.54-7.62-8.1 0-4.62 3.06-8.1 7.62-8.1 4.32 0 7.56 3.3 7.56 8.1s-3.36 8.1-7.56 8.1z"/><path d="m117.891 52.5c3.96 0 5.88-.84 7.74-1.86l-1.98-6.3c-1.32.66-2.76 1.02-3.72 1.02-1.86 0-2.52-1.2-2.52-3.78v-12.42h7.92v-6.54h-7.92v-10.38l-7.86.84v9.54h-3.48v6.54h3.48v13.56c0 6.6 3.3 9.78 8.34 9.78z"/><path d="m140.391 52.5c3.96 0 5.88-.84 7.74-1.86l-1.98-6.3c-1.32.66-2.76 1.02-3.72 1.02-1.86 0-2.52-1.2-2.52-3.78v-12.42h7.92v-6.54h-7.92v-10.38l-7.86.84v9.54h-3.48v6.54h3.48v13.56c0 6.6 3.3 9.78 8.34 9.78z"/><path d="m157.683 18.66c2.82 0 4.98-2.16 4.98-4.86 0-2.64-2.16-4.8-4.98-4.8-2.88 0-4.98 2.16-4.98 4.8 0 2.7 2.1 4.86 4.98 4.86zm-4.02 33.3h7.86v-29.34h-7.86z"/><path d="m196.01 37.02c0-8.58-5.76-14.82-14.04-14.82-8.7 0-14.88 6.12-14.88 15.06 0 9.18 6.36 15.24 15.36 15.24 6.54 0 10.32-2.4 12.78-5.58l-5.1-4.74c-1.56 1.92-3.84 3.3-7.14 3.3-3.96 0-6.78-2.1-7.74-5.64h20.58c.06-.48.18-1.86.18-2.82zm-14.1-7.98c3.42 0 5.52 2.04 6.3 5.16h-12.9c.9-3.36 3.42-5.16 6.6-5.16z"/></g><circle cx="24.5" cy="44.46" fill="#18c8ca" r="7.5"/></svg>